<svg xmlns="http://www.w3.org/2000/svg" viewBox="0 0 431.66 597.79"><defs><style>.cls-1,.cls-3{fill:#b3b4b4;}.cls-2,.cls-3,.cls-4{font-size:322.01px;font-family:Bungee-Regular, Bungee;}.cls-2{fill:#231f20;}.cls-5{fill:none;}.cls-6{fill:#ed2024;}.cls-7{fill:#fff;}</style></defs><title>Asset 4</title><g id="Layer_2" data-name="Layer 2"><g id="Layer_1-2" data-name="Layer 1"><polygon class="cls-1" points="316.3 74.91 324.66 66.27 322.62 76.56 316.3 74.91"/><polyline class="cls-1" points="232.14 73.8 232.4 73.55 239.7 66.51 238.91 73.8"/><polygon class="cls-1" points="72.56 74.31 80.22 66.67 79.58 74.5 72.56 74.31"/><text class="cls-2" transform="translate(56.18 302.82) scale(0.67 1)">DU</text><text class="cls-3" transform="translate(62.18 296.82) scale(0.67 1)">DU</text><text class="cls-4" transform="translate(56.18 302.82) scale(0.67 1)">DU</text><path class="cls-5" d="M215.83,384.14c58.07,0,112.67-20.82,153.73-58.63A203,203,0,0,0,407.89,278H23.78A203,203,0,0,0,62.1,325.51C103.17,363.32,157.76,384.14,215.83,384.14Z"/><path class="cls-6" d="M369.56,325.51c-41.06,37.81-95.66,58.63-153.73,58.63S103.17,363.32,62.1,325.51a205,205,0,0,1-34.23-40.8A15.2,15.2,0,0,0,15,278h0C3.44,278-3.77,289.52,2.07,298.71,45,366.33,124.64,411.77,215.83,411.77S386.69,366.33,429.6,298.71c5.83-9.19-1.38-20.75-12.94-20.75h0a15.16,15.16,0,0,0-12.86,6.75A204.72,204.72,0,0,1,369.56,325.51Z"/><rect class="cls-6" x="402.47" y="0.19" width="29.19" height="302.64" rx="13.06"/><rect class="cls-6" x="320.35" y="-84.24" width="26.88" height="195.74" transform="translate(320.16 347.42) rotate(-90)"/><path class="cls-6" d="M402.47,285.51s.42.68-1.2,3.08l3.75-1.54Z"/><circle class="cls-6" cx="215.83" cy="13.63" r="13.63"/><circle class="cls-7" cx="211.32" cy="9.12" r="4.51"/></g></g></svg>